<svg t="1619182473232" class="icon" viewBox="0 0 1024 1024" version="1.1" xmlns="http://www.w3.org/2000/svg" p-id="2439" width="200" height="200">
  <path d="M938.32 664.84c0 81.37-33.43 147.33-74.66 147.33-41.24 0-74.67-65.96-74.67-147.33 0-81.38 33.43-147.34 74.67-147.34 41.23 0 74.66 65.96 74.66 147.34zM212.67 657.86c0 68.57-23.46 124.15-52.41 124.15-28.94 0-52.41-55.58-52.41-124.15 0-68.56 23.46-124.15 52.41-124.15 28.94 0 52.41 55.59 52.41 124.15z" fill="#ffffff" p-id="2440" data-spm-anchor-id="a313x.7781069.0.i4" class="selected"></path>
  <path d="M239.82 510.49h-27.15c0-164.95 133.72-298.67 298.67-298.67C676.28 211.83 810 345.55 810 510.49h-54.3c0-134.96-109.41-244.37-244.37-244.37S266.97 375.53 266.97 510.49h-27.15z m0 0M402.73 619.1h95.02v190.06h-95.02c-52.49 0-95.03-42.66-95.03-95.04 0-52.48 42.65-95.02 95.03-95.02z m-4.94 141.58h86.39v34.91-162.91 34.9h-86.39c-27.21 0-49.37 20.88-49.37 46.55 0.01 25.66 22.14 46.55 49.37 46.55z m0 0M579.22 619.1v135.76c0 6.71 7.07 13.58 13.58 13.58h122.18l-40.73 40.72V619.1h40.73v190.06H592.79c-27.91 0-54.3-24.03-54.3-54.31V619.1h40.73z m0 0" fill="#ffffff" p-id="2441" data-spm-anchor-id="a313x.7781069.0.i5" class="selected"></path>
  <path d="M457.03 483.34h40.72v325.82h-40.72zM212.67 782.01v27.16c-82.47 0-149.33-66.86-149.33-149.34s66.86-149.34 149.33-149.34v54.31c-52.49 0-95.03 42.54-95.03 95.03 0 52.48 42.55 95.03 95.03 95.03v27.15z m0 0M810 782.01v27.16c82.47 0 149.33-66.86 149.33-149.34S892.47 510.49 810 510.49v54.31c52.49 0 95.03 42.54 95.03 95.03 0 52.48-42.54 95.03-95.03 95.03v27.15z m0 0M212.67 510.49h54.31v298.67h-54.31zM755.7 510.49H810v298.67h-54.3z" fill="#ffffff" p-id="2442" data-spm-anchor-id="a313x.7781069.0.i3" class="selected"></path>
</svg>