<svg t="1619167266255" class="icon" viewBox="0 0 1024 1024" version="1.1" xmlns="http://www.w3.org/2000/svg" p-id="874" width="200" height="200">
  <path d="M102.28 206.45l175.64-101.4c21.42-12.37 48.2 3.09 48.2 27.83v202.81c0 24.74-26.78 40.2-48.2 27.83L102.28 262.1c-21.42-12.36-21.42-43.28 0-55.65zM919.06 595H120.32c-13.25 0-24-10.75-24-24s10.75-24 24-24h798.74c13.25 0 24 10.75 24 24s-10.75 24-24 24z" p-id="875" fill="#D3D3D3"></path>
  <path d="M919.06 258.28H120.32c-13.25 0-24-10.75-24-24s10.75-24 24-24h798.74c13.25 0 24 10.75 24 24s-10.75 24-24 24zM919.06 931.73H120.32c-13.25 0-24-10.75-24-24s10.75-24 24-24h798.74c13.25 0 24 10.75 24 24s-10.75 24-24 24z" p-id="876" fill="#ffffff"></path>
</svg>