<svg t="1620469508650" class="icon" viewBox="0 0 1024 1024" version="1.1" xmlns="http://www.w3.org/2000/svg" p-id="1934" width="200" height="200">
  <path d="M801.1906036622222 399.6525715911111h-178.92368270222224c29.127111111111113-120.66946048 24.966095075555554-210.13130126222222-12.483048106666667-264.2245085866667-27.04660366222222-41.61015921777778-64.49574570666667-45.77117411555556-68.65676174222223-45.77117411555556h-2.080507448888889c-43.690666666666665 0-66.57625429333333 20.80507904-68.65676288 64.49574570666667v4.161016035555555c0 2.080507448888889-2.080507448888889 4.161016035555555-2.080507448888889 6.241523484444444 0 133.15250744888888-143.55504810666667 241.33892096-145.63555555555556 241.33892096-6.241523484444444 4.161016035555555-8.32203207111111 10.40253952-8.32203207111111 16.64406414222222v411.9405704533333c0 54.09320618666666 64.49574570666667 76.97879381333334 97.78387285333334 76.97879381333334h309.9956827022222c39.52965063111111 0 64.49574570666667-64.49574570666667 72.81777777777778-91.54234936888889C874.00838144 553.6101592177778 874.00838144 472.47034936888883 874.00838144 470.3898407822222c0-27.04660366222222-10.40253952-43.690666666666665-20.805080177777775-52.012697599999996-18.724571591111108-20.80507904-45.77117411555556-18.724571591111108-52.012697599999996-18.724571591111108zM757.4999369955556 803.271111111111c-8.32203207111111 29.127111111111113-24.966095075555554 60.334729671111106-33.28812714666667 62.41523825777778H414.2161271466667c-12.483048106666667 0-56.17371477333333-10.40253952-56.17371477333333-35.368634595555555V430.8601901511111c33.28812714666667-27.04660366222222 151.87707903999998-131.072 153.95758762666668-266.3050160355555 0-4.161016035555555 2.080507448888889-6.241523484444444 2.080507448888889-10.40253952 0-14.563555555555556 2.080507448888889-24.966095075555554 27.04660366222222-24.966095075555554 4.161016035555555 0 22.885587626666666 6.241523484444444 37.449143182222215 29.127111111111113 22.885587626666666 33.28812714666667 39.52965063111111 104.02539633777778 0 257.98298396444443-2.080507448888889 6.241523484444444 0 12.483048106666667 4.161016035555555 18.724571591111108s10.40253952 8.32203207111111 16.644063004444444 8.32203207111111h208.05079381333334s14.563555555555556 0 22.885587626666666 6.241523484444444c4.161016035555555 4.161016035555555 8.32203207111111 12.483048106666667 8.322030933333332 22.885587626666666-6.241523484444444-2.080507448888889-6.241523484444444 76.97879381333334-81.1398087111111 330.8007617422222zM260.25853952 865.6863493688888h-56.17371363555555c-4.161016035555555 0-4.161016035555555-2.080507448888889-4.161016035555555-6.241523484444444l-24.966095075555554-414.0210801777778c0-4.161016035555555 2.080507448888889-4.161016035555555 4.161014897777778-4.161016035555555h72.81777777777778c12.483048106666667 0 20.80507904-8.32203207111111 20.805080177777775-20.80507904s-8.32203207111111-20.80507904-20.805080177777775-20.80507904H179.11872967111117c-33.28812714666667 0-45.77117411555556 27.04660366222222-45.77117411555556 47.85168270222223L158.3136506311111 859.4448258844444c0 35.368634595555555 29.127111111111113 47.85168270222223 47.85168270222223 47.85168156444444H262.3390481066667c12.483048106666667 0 20.80507904-8.32203207111111 20.80507904-20.80507904s-10.40253952-20.80507904-22.885587626666666-20.80507904z" fill="#8C8C8C" p-id="1935"></path>
</svg>