<svg t="1620478650345" class="icon" viewBox="0 0 1024 1024" version="1.1" xmlns="http://www.w3.org/2000/svg" p-id="2269" width="200" height="200">
  <path d="M177.664 178.176h704c17.408 0 31.744-14.336 31.744-32.256s-14.336-32.256-31.744-32.256H177.664c-17.408 0-31.744 14.336-31.744 32.256s14.336 32.256 31.744 32.256zM840.704 542.208l-288.256-290.304-1.024-1.024-0.512-0.512-0.512-0.512-0.512-0.512s-0.512 0-0.512-0.512c-0.512 0-0.512-0.512-1.024-0.512 0 0-0.512 0-0.512-0.512-0.512 0-0.512-0.512-1.024-0.512 0 0-0.512 0-0.512-0.512-0.512 0-0.512-0.512-1.024-0.512 0 0-0.512 0-0.512-0.512-0.512 0-0.512-0.512-1.024-0.512 0 0-0.512 0-0.512-0.512-0.512 0-0.512 0-1.024-0.512 0 0-0.512 0-0.512-0.512 0 0-0.512 0-0.512-0.512-0.512 0-0.512 0-1.024-0.512h-0.512c-0.512 0-0.512 0-1.024-0.512h-0.512c-0.512 0-0.512 0-1.024-0.512H535.552 534.016h-2.56-3.584-2.56H523.776 522.24h-0.512c-0.512 0-0.512 0-1.024 0.512h-0.512c-0.512 0-0.512 0-1.024 0.512h-0.512c-0.512 0-0.512 0-1.024 0.512 0 0-0.512 0-0.512 0.512 0 0-0.512 0-0.512 0.512 0 0-0.512 0-0.512 0.512 0 0-0.512 0-0.512 0.512 0 0-0.512 0-0.512 0.512 0 0-0.512 0-0.512 0.512-0.512 0-0.512 0.512-1.024 0.512 0 0-0.512 0-0.512 0.512l-0.512 0.512s-0.512 0-0.512 0.512c-0.512 0-0.512 0.512-1.024 0.512 0 0-0.512 0-0.512 0.512l-0.512 0.512-0.512 0.512-0.512 0.512c-0.512 0.512-1.024 0.512-1.024 1.024l-288.256 290.304a32.768 32.768 0 0 0 0 45.568 31.232 31.232 0 0 0 45.056 0l233.472-235.52v566.784c0 17.92 14.336 32.256 31.744 32.256 17.408 0 31.744-14.336 31.744-32.256V352.256l233.472 235.52a31.232 31.232 0 0 0 45.056 0c12.8-12.288 12.8-32.768 0.512-45.568z" fill="#DCDCDC" p-id="2270"></path>
</svg>