<svg t="1619242579736" class="icon" viewBox="0 0 1024 1024" version="1.1" xmlns="http://www.w3.org/2000/svg" p-id="5150" width="200" height="200">
  <path d="M678.064316 1024c-33.254665 0-64.974499-15.859917-85.438908-45.53331l-36.835937-53.207464c-10.232205-14.836697-26.603732-23.534071-44.51009-23.534071s-33.766275 8.697374-44.51009 23.534071L429.933355 977.955079c-28.650173 41.440429-79.299586 56.277125-125.856117 36.835937-47.068141-19.441189-72.648653-65.99772-63.951279-116.135522l10.743815-62.928059c3.069661-18.417968-2.558051-35.812716-15.348307-49.114582-12.790256-12.790256-30.185004-17.906358-47.579751-14.836696l-62.928058 11.255425c-50.137803 8.697374-96.694333-16.883138-116.135522-63.439669-19.441189-46.556531-4.604492-97.717554 37.347546-126.879337l53.207464-36.835936c14.836697-10.232205 23.534071-26.092122 23.534071-43.99848s-8.697374-34.277885-23.534071-45.0217l-53.719074-35.812716c-41.440429-29.161783-56.277125-80.322806-36.835936-127.390947 19.441189-46.556531 65.99772-72.137042 115.623911-63.439669L187.430106 251.468553c17.906358 3.069661 35.812716-2.558051 48.602972-15.348307s17.906358-30.185004 14.836696-48.091361l-10.743815-63.439669c-8.697374-50.137803 16.883138-96.694333 63.439669-116.135522 46.556531-19.441189 97.717554-4.604492 126.879337 36.835936l36.835936 53.207464c10.232205 14.836697 26.603732 23.534071 44.51009 23.534071s33.766275-8.697374 44.51009-23.534071l36.835937-53.207464c29.161783-41.440429 80.322806-56.277125 127.390947-36.324326 46.556531 19.441189 71.625432 66.50933 61.904838 116.135522l-10.743815 62.416448c-3.069661 18.417968 2.558051 35.812716 15.348307 49.114582 12.790256 12.790256 30.185004 17.906358 47.579751 14.836697l63.439669-11.255425c50.137803-8.697374 96.694333 16.883138 116.135522 63.439669 19.441189 46.556531 4.604492 97.717554-37.347547 126.879336l-53.207464 36.835937c-14.836697 10.232205-23.534071 26.092122-23.53407 43.99848s8.697374 34.277885 23.53407 45.0217l53.207464 36.835937c41.952039 29.161783 57.300346 80.322806 37.859157 127.390947-19.441189 47.068141-66.50933 72.648653-117.158742 62.928058l-62.928059-11.255425c-17.906358-3.069661-35.812716 2.558051-48.602972 15.348307s-17.906358 30.185004-14.836696 48.091361l10.743815 63.439669c9.208984 49.626192-16.371527 96.694333-62.928059 116.135522-12.790256 5.627713-27.115342 8.697374-40.928818 8.697374z m-166.784935-173.947478c34.789496 0 65.99772 16.371527 86.462129 45.53331l36.835936 53.207464c18.417968 26.603732 47.068141 26.603732 65.48611 18.929579 19.441189-8.185764 37.859157-28.138563 32.231444-59.858397L721.551186 844.93642c-6.139323-34.277885 4.092882-68.044161 28.650172-93.113062 24.557291-24.557291 59.858397-35.812716 94.136283-29.673394l62.928058 11.255426c32.231444 6.139323 53.207464-13.813476 60.881617-32.231445 7.674153-18.929579 7.162543-47.068141-19.441188-65.486109l-53.207464-36.835937c-28.650173-19.952799-45.53331-52.695854-45.533311-86.973739 0-34.789496 16.883138-65.99772 45.533311-85.950519l53.207464-36.835936c26.603732-18.417968 26.603732-46.556531 18.929578-65.48611-8.185764-19.441189-28.138563-38.370767-59.858397-32.743054L844.337641 302.117966c-33.766275 6.139323-68.555771-4.604492-93.113062-28.650173-24.557291-24.557291-35.812716-59.858397-29.673393-94.136282l10.743814-62.928059c6.139323-31.719834-12.278646-51.672633-31.719834-59.858396-18.417968-7.674153-47.068141-7.674153-65.486109 18.417968l-36.835937 53.207464c-20.464409 29.161783-51.672633 45.53331-86.462129 45.53331S445.793272 157.332271 425.328863 128.682098l-36.835937-53.207464c-18.417968-26.092122-46.556531-26.603732-65.486109-18.417968-19.441189 8.185764-38.370767 28.138563-32.743055 59.858397L301.007577 179.843121c6.139323 34.277885-4.092882 68.044161-28.650173 93.113062-24.557291 24.557291-59.858397 35.812716-94.136282 29.673393l-62.928059-11.255425c-31.208224-5.627713-51.161023 13.301866-59.346786 32.743055-7.674153 18.417968-7.674153 47.068141 18.929578 65.486109L128.083319 426.439252c28.650173 19.952799 45.53331 52.695854 45.53331 86.973739 0 34.789496-16.883138 65.99772-45.53331 85.950518l-53.207464 36.835937c-26.603732 18.417968-26.603732 46.556531-18.929578 65.486109 8.185764 19.441189 28.138563 38.370767 59.858397 32.743055l62.928058-11.255425c33.766275-6.139323 68.555771 4.604492 93.113062 28.650173 24.557291 24.557291 35.812716 59.858397 29.673393 94.136282l-10.743815 62.928058c-5.627713 31.719834 14.325086 52.184243 32.743055 59.858397 19.441189 8.185764 46.556531 7.162543 64.462889-18.929578L424.817252 896.097443c20.464409-29.161783 51.672633-46.044921 86.462129-46.044921z m1.023221-86.462129c-138.134762 0-250.689013-112.554251-250.689013-250.689013s112.554251-250.689013 250.689013-250.689012 250.689013 112.554251 250.689012 250.689012-112.554251 250.689013-250.689012 250.689013z m0-450.217002c-109.996199 0-199.52799 89.53179-199.52799 199.527989s89.53179 199.52799 199.52799 199.52799 199.52799-89.53179 199.527989-199.52799-89.53179-199.52799-199.527989-199.527989z" fill="#e6e6e6" p-id="5151"></path>
</svg>