<svg t="1619242520099" class="icon" viewBox="0 0 1207 1024" version="1.1" xmlns="http://www.w3.org/2000/svg" p-id="4298" width="200" height="200">
  <path d="M925.554759 0.199262v78.568084l201.286316 199.332769-113.021538 112.559791a76.756614 76.756614 0 0 0-52.958867-19.926173 79.740212 79.740212 0 0 0-81.23201 80.912339V866.863477a78.71016 78.71016 0 0 1-78.887755 78.568084H405.236559a78.71016 78.71016 0 0 1-78.852236-78.568084V451.752629a79.775731 79.775731 0 0 0-81.232011-80.912339 81.693758 81.693758 0 0 0-52.958867 19.926173L79.171907 278.206672l200.114188-199.332769h49.442483l2.344256 2.344255a342.15477 342.15477 0 0 0 546.21157 0 2.308737 2.308737 0 0 1 2.344256-2.344255h47.098227V0.199262m-596.719624 0H286.354381a77.324918 77.324918 0 0 0-61.19928 23.442556L23.868785 223.010107a75.620005 75.620005 0 0 0 0 110.108978l116.537922 116.111694a75.264814 75.264814 0 0 0 51.786738 21.098301 81.018897 81.018897 0 0 0 51.786739-21.098301h1.172128c2.344256 0 2.344256 0 2.344256 2.344255V866.863477a157.455839 157.455839 0 0 0 157.739991 157.136168h395.539865a157.455839 157.455839 0 0 0 157.739991-157.136168V451.752629c0-2.344256 0-2.344256 2.344255-2.344255h2.344256a75.264814 75.264814 0 0 0 51.786739 21.098301 76.294866 76.294866 0 0 0 51.786739-21.098301l116.537921-116.111694a75.620005 75.620005 0 0 0 0-110.108978L983.202137 23.819414a80.130921 80.130921 0 0 0-57.682897-23.442557h-49.406964a78.568084 78.568084 0 0 0-67.095438 37.50809 263.231496 263.231496 0 0 1-414.364949 0A74.589953 74.589953 0 0 0 329.900706 0.199262z" p-id="4299" fill="#e6e6e6"></path>
</svg>