<svg t="1619242458120" class="icon" viewBox="0 0 1024 1024" version="1.1" xmlns="http://www.w3.org/2000/svg" p-id="3318" width="200" height="200">
  <path d="M957.657309 835.813184A482.971171 482.971171 0 0 0 853.980635 682.644765a488.091007 488.091007 0 0 0-153.595072-103.676674 319.136428 319.136428 0 1 0-373.321356 0A474.011459 474.011459 0 0 0 170.055911 682.644765a480.837906 480.837906 0 0 0-103.676674 153.595072A469.318276 469.318276 0 0 0 30.96704 969.355567 47.785134 47.785134 0 0 0 80.032132 1023.967148a50.771704 50.771704 0 0 0 48.63844-42.665298 378.867845 378.867845 0 0 1 110.503121-229.112649A386.547598 386.547598 0 0 1 895.792627 981.30185a48.63844 48.63844 0 0 0 48.638439 42.665298 48.211787 48.211787 0 0 0 48.63844-54.611581 469.318276 469.318276 0 0 0-35.412197-133.542383z m-445.42571-295.670514a221.432896 221.432896 0 1 1 0-442.439138 221.006243 221.006243 0 0 1 156.15499 377.587886 219.299631 219.299631 0 0 1-156.15499 64.851252z" p-id="3319" fill="#e6e6e6"></path>
</svg>