<svg t="1619256095924" class="icon" viewBox="0 0 1024 1024" version="1.1" xmlns="http://www.w3.org/2000/svg" p-id="8793" width="200" height="200">
  <path d="M486.4 582.656l-64.9216-64.896a25.6 25.6 0 0 0-36.1984 36.1984l108.6208 108.6208a25.6 25.6 0 0 0 36.1984 0l108.6208-108.6208a25.6 25.6 0 1 0-36.1984-36.1984L537.6 582.6816V332.8a25.6 25.6 0 0 0-51.2 0v249.856z m168.192 239.0272a25.6 25.6 0 1 0 22.016 46.2336A384 384 0 0 0 896 520.8832c0-212.0704-171.9296-384-384-384-212.0704 0-384 171.9296-384 384a384 384 0 0 0 219.392 347.0336 25.6 25.6 0 1 0 22.016-46.2336A332.8 332.8 0 0 1 179.2 520.8832c0-183.808 148.992-332.8 332.8-332.8s332.8 148.992 332.8 332.8a332.8 332.8 0 0 1-190.208 300.8zM512 819.2a25.6 25.6 0 1 0 0 51.2 25.6 25.6 0 0 0 0-51.2z" p-id="8794" fill="#e6e6e6"></path>
</svg>